<?xml version="1.0" encoding="UTF-8" standalone="no"?>
<!-- Created with Inkscape (http://www.inkscape.org/) -->

<svg
   xmlns:dc="http://purl.org/dc/elements/1.1/"
   xmlns:cc="http://creativecommons.org/ns#"
   xmlns:rdf="http://www.w3.org/1999/02/22-rdf-syntax-ns#"
   xmlns:svg="http://www.w3.org/2000/svg"
   xmlns="http://www.w3.org/2000/svg"
   xmlns:sodipodi="http://sodipodi.sourceforge.net/DTD/sodipodi-0.dtd"
   xmlns:inkscape="http://www.inkscape.org/namespaces/inkscape"
   width="278.79965"
   height="984.45612"
   id="svg4390"
   version="1.1"
   inkscape:version="0.47 r22583"
   sodipodi:docname="New document 6">
  <defs
     id="defs4392">
    <inkscape:perspective
       sodipodi:type="inkscape:persp3d"
       inkscape:vp_x="0 : 526.18109 : 1"
       inkscape:vp_y="0 : 1000 : 0"
       inkscape:vp_z="744.09448 : 526.18109 : 1"
       inkscape:persp3d-origin="372.04724 : 350.78739 : 1"
       id="perspective4398" />
    <inkscape:perspective
       id="perspective4385"
       inkscape:persp3d-origin="0.5 : 0.33333333 : 1"
       inkscape:vp_z="1 : 0.5 : 1"
       inkscape:vp_y="0 : 1000 : 0"
       inkscape:vp_x="0 : 0.5 : 1"
       sodipodi:type="inkscape:persp3d" />
  </defs>
  <sodipodi:namedview
     id="base"
     pagecolor="#ffffff"
     bordercolor="#666666"
     borderopacity="1.0"
     inkscape:pageopacity="0.0"
     inkscape:pageshadow="2"
     inkscape:zoom="0.85918079"
     inkscape:cx="337.10319"
     inkscape:cy="544.34052"
     inkscape:document-units="px"
     inkscape:current-layer="layer1"
     showgrid="false"
     inkscape:window-width="1680"
     inkscape:window-height="998"
     inkscape:window-x="-8"
     inkscape:window-y="-8"
     inkscape:window-maximized="1" />
  <metadata
     id="metadata4395">
    <rdf:RDF>
      <cc:Work
         rdf:about="">
        <dc:format>image/svg+xml</dc:format>
        <dc:type
           rdf:resource="http://purl.org/dc/dcmitype/StillImage" />
        <dc:title></dc:title>
      </cc:Work>
    </rdf:RDF>
  </metadata>
  <g
     inkscape:label="Layer 1"
     inkscape:groupmode="layer"
     id="layer1"
     transform="translate(-37.896811,-34.051597)">
    <path
       style="fill:#f0f0f0;fill-opacity:1;stroke:#000000;stroke-width:2.71108079;stroke-miterlimit:4;stroke-opacity:1;stroke-dasharray:none;display:inline"
       d="m 184.30988,39.407137 c -2.43886,0.07883 -3.65591,0.08033 -4.87967,0.09384 l 0,0.09384 c -1.20044,-0.01201 -2.39386,-0.01652 -4.78584,-0.09384 -39.28932,0.359038 -38.80258,67.434793 -24.67989,87.834163 6.27675,12.55347 -0.0248,25.12324 -1.59528,37.67671 -16.2956,15.25724 -69.0115,9.92992 -77.324095,23.55383 -11.016399,22.63648 -25.015152,136.56626 -19.237182,154.92969 -16.753471,28.27739 18.096239,142.4315 18.064184,163.56297 -9.044696,52.67556 14.378571,68.4093 26.932053,68.4093 -0.0643,-9.91388 -18.388298,-22.69069 -12.715307,-33.87621 4.771687,-3.07417 3.555632,2.23661 11.401547,6.94415 -0.30838,-3.77074 -0.54017,-7.85083 -0.79764,-12.01151 -1.05028,-9.34096 -2.01332,-18.77642 -2.72136,-28.19889 -0.23254,-1.30912 -0.47227,-2.54212 -0.75071,-3.70667 -6.276753,-9.41514 4.47272,-102.4273 -2.43984,-135.6456 10.21134,-26.90943 17.28738,-117.62857 15.71818,-131.75123 5.64094,38.15041 2.72233,104.48299 4.692,130.85976 -18.83559,34.87925 -21.18719,87.4435 -17.21963,140.24374 1.41244,7.95122 2.10932,18.30892 2.72136,28.19889 8.00746,71.21673 24.23493,137.20846 22.99078,154.17898 -14.06124,68.61885 4.10432,184.00654 4.97352,196.12541 -0.93338,11.21748 -6.82146,27.58854 -2.58061,34.53309 -5.67295,24.06869 -12.49624,28.19909 -7.78871,42.32182 4.70758,14.12273 40.51858,21.28953 47.06073,12.57448 2.03585,-13.22147 -3.12808,-50.2148 -7.83564,-56.49158 2.50254,-5.37539 8.2537,-21.51815 3.14364,-37.67673 9.31008,-15.25736 20.80235,-146.51152 16.32814,-160.23164 4.30892,-6.18096 8.86092,-37.54058 4.17423,-46.03541 0.38087,-4.14142 1.16223,-122.15651 3.09644,-124.91858 3.41669,-11.14588 2.28403,-11.02065 4.41998,-0.15238 2.18179,3.82674 1.74542,121.17108 2.1263,125.31249 -4.6867,8.49484 -1.14084,39.51908 3.16808,45.70004 -4.47422,13.72012 7.01807,144.97428 16.32816,160.23164 -5.11006,16.15857 0.6411,32.30134 3.14363,37.67673 -4.70755,6.27677 -9.87147,43.27011 -7.83562,56.49161 6.54214,8.71496 42.35314,1.54815 47.06071,-12.57454 4.70754,-14.1227 -2.11575,-18.2531 -7.78872,-42.32179 4.24087,-6.94455 -1.64723,-23.3156 -2.58059,-34.53309 0.8692,-12.11888 19.03476,-127.50656 4.97351,-196.12542 -1.24415,-16.97052 14.98333,-82.96224 22.99078,-154.17897 0.61204,-9.88998 1.30892,-20.24768 2.72136,-28.19889 3.96756,-52.80024 1.61597,-105.36449 -17.21963,-140.24375 1.96966,-26.37676 -0.94894,-92.70934 4.692,-130.85975 -1.56919,14.12267 5.50684,104.8418 15.71818,131.75123 -6.91256,33.21829 3.83691,126.23046 -2.43984,135.6456 -0.27843,1.16455 -0.51817,2.39755 -0.75071,3.70667 -0.70803,9.42248 -1.67107,18.85794 -2.72136,28.19889 -0.25747,4.16068 -0.48926,8.24077 -0.79763,12.01152 7.84591,-4.70755 6.62985,-10.01833 11.40154,-6.94416 5.673,11.18552 -12.65105,23.96233 -12.71531,33.87621 12.55348,0 35.97676,-15.73375 26.93206,-68.4093 -0.032,-21.13147 34.81765,-135.28558 18.06418,-163.56296 5.77798,-18.36344 -8.22078,-132.29322 -19.23718,-154.9297 -8.31259,-13.62391 -61.0285,-8.29658 -77.32409,-23.55383 -1.5705,-12.55346 -7.87202,-25.12324 -1.59527,-37.67672 14.12268,-20.39937 14.60941,-87.475115 -24.67992,-87.834154 z"
       id="path3547"
       sodipodi:nodetypes="cccccccccccccccccccccccsccccccccccccscccccccccccccccccccc" />
  </g>
</svg>
